<svg xmlns="http://www.w3.org/2000/svg" xmlns:xlink="http://www.w3.org/1999/xlink" width="192" zoomAndPan="magnify" viewBox="0 0 144 72" height="96" preserveAspectRatio="xMidYMid meet" version="1.0"><defs><g/><clipPath id="c60925dc03"><path d="M 74.359375 46.617188 L 132.109375 46.617188 L 132.109375 57.867188 L 74.359375 57.867188 Z M 74.359375 46.617188 " clip-rule="nonzero"/></clipPath><clipPath id="ca935972d5"><path d="M 128.792969 21.640625 L 133.3125 21.640625 L 133.3125 47.675781 L 128.792969 47.675781 Z M 128.792969 21.640625 " clip-rule="nonzero"/></clipPath><clipPath id="6de41d7abb"><path d="M 133.3125 23.140625 L 133.3125 46.167969 C 133.3125 46.996094 132.640625 47.667969 131.8125 47.667969 L 130.292969 47.667969 C 129.464844 47.667969 128.792969 46.996094 128.792969 46.167969 L 128.792969 23.140625 C 128.792969 22.3125 129.464844 21.640625 130.292969 21.640625 L 131.8125 21.640625 C 132.640625 21.640625 133.3125 22.3125 133.3125 23.140625 Z M 133.3125 23.140625 " clip-rule="nonzero"/></clipPath><clipPath id="16358bae4d"><path d="M 0.792969 0.640625 L 5.3125 0.640625 L 5.3125 26.675781 L 0.792969 26.675781 Z M 0.792969 0.640625 " clip-rule="nonzero"/></clipPath><clipPath id="509d14653d"><path d="M 5.3125 2.140625 L 5.3125 25.167969 C 5.3125 25.996094 4.640625 26.667969 3.8125 26.667969 L 2.292969 26.667969 C 1.464844 26.667969 0.792969 25.996094 0.792969 25.167969 L 0.792969 2.140625 C 0.792969 1.3125 1.464844 0.640625 2.292969 0.640625 L 3.8125 0.640625 C 4.640625 0.640625 5.3125 1.3125 5.3125 2.140625 Z M 5.3125 2.140625 " clip-rule="nonzero"/></clipPath><clipPath id="1b6d01e985"><rect x="0" width="6" y="0" height="27"/></clipPath></defs><g fill="#000000" fill-opacity="1"><g transform="translate(14.935195, 46.861533)"><g><path d="M 2.929688 0 L 2.929688 -24.808594 L 18.25 -24.808594 L 18.25 -22.3125 L 5.59375 -22.3125 L 5.59375 -13.6875 L 17.25 -13.6875 L 17.25 -11.1875 L 5.59375 -11.1875 L 5.59375 0 Z M 2.929688 0 "/></g></g></g><g fill="#000000" fill-opacity="1"><g transform="translate(33.279432, 46.861533)"><g><path d="M 2.5625 0 L 2.5625 -17.847656 L 5.0625 -17.847656 L 5.0625 -14.917969 L 4.730469 -15.351562 C 5.152344 -16.195312 5.789062 -16.859375 6.644531 -17.347656 C 7.5 -17.835938 8.535156 -18.082031 9.757812 -18.082031 L 10.890625 -18.082031 L 10.890625 -15.585938 L 9.324219 -15.585938 C 8.035156 -15.585938 7.003906 -15.183594 6.226562 -14.386719 C 5.449219 -13.585938 5.0625 -12.453125 5.0625 -10.988281 L 5.0625 0 Z M 2.5625 0 "/></g></g></g><g fill="#000000" fill-opacity="1"><g transform="translate(44.532464, 46.861533)"><g><path d="M 10.921875 0.398438 C 9.234375 0.398438 7.703125 -0.00390625 6.328125 -0.816406 C 4.949219 -1.625 3.855469 -2.734375 3.046875 -4.144531 C 2.238281 -5.554688 1.832031 -7.160156 1.832031 -8.957031 C 1.832031 -10.734375 2.230469 -12.320312 3.03125 -13.71875 C 3.828125 -15.117188 4.910156 -16.222656 6.277344 -17.03125 C 7.640625 -17.84375 9.191406 -18.25 10.921875 -18.25 C 12.652344 -18.25 14.203125 -17.847656 15.566406 -17.050781 C 16.933594 -16.25 18.007812 -15.152344 18.796875 -13.753906 C 19.585938 -12.355469 19.980469 -10.757812 19.980469 -8.957031 C 19.980469 -7.136719 19.570312 -5.523438 18.746094 -4.113281 C 17.925781 -2.703125 16.832031 -1.597656 15.46875 -0.800781 C 14.101562 0 12.585938 0.398438 10.921875 0.398438 Z M 10.921875 -2.097656 C 12.121094 -2.097656 13.203125 -2.398438 14.167969 -2.996094 C 15.136719 -3.597656 15.902344 -4.417969 16.46875 -5.460938 C 17.03125 -6.503906 17.316406 -7.671875 17.316406 -8.957031 C 17.316406 -10.246094 17.03125 -11.398438 16.46875 -12.421875 C 15.902344 -13.441406 15.136719 -14.253906 14.167969 -14.851562 C 13.203125 -15.453125 12.121094 -15.75 10.921875 -15.75 C 9.722656 -15.75 8.640625 -15.453125 7.675781 -14.851562 C 6.710938 -14.253906 5.9375 -13.441406 5.359375 -12.421875 C 4.785156 -11.398438 4.496094 -10.246094 4.496094 -8.957031 C 4.496094 -7.671875 4.785156 -6.503906 5.359375 -5.460938 C 5.9375 -4.417969 6.710938 -3.597656 7.675781 -2.996094 C 8.640625 -2.398438 9.722656 -2.097656 10.921875 -2.097656 Z M 10.921875 -2.097656 "/></g></g></g><g fill="#000000" fill-opacity="1"><g transform="translate(66.339386, 46.861533)"><g><path d="M 2.5625 0 L 2.5625 -17.847656 L 5.0625 -17.847656 L 5.0625 -14.386719 L 4.496094 -14.519531 C 4.941406 -15.671875 5.667969 -16.582031 6.675781 -17.25 C 7.6875 -17.914062 8.859375 -18.25 10.191406 -18.25 C 11.457031 -18.25 12.59375 -17.960938 13.601562 -17.382812 C 14.613281 -16.804688 15.414062 -16.011719 16 -15 C 16.589844 -13.992188 16.882812 -12.855469 16.882812 -11.589844 L 16.882812 0 L 14.386719 0 L 14.386719 -10.621094 C 14.386719 -11.710938 14.191406 -12.632812 13.804688 -13.386719 C 13.414062 -14.140625 12.871094 -14.722656 12.171875 -15.136719 C 11.472656 -15.546875 10.667969 -15.75 9.757812 -15.75 C 8.847656 -15.75 8.035156 -15.546875 7.324219 -15.136719 C 6.617188 -14.722656 6.0625 -14.136719 5.660156 -13.371094 C 5.261719 -12.605469 5.0625 -11.6875 5.0625 -10.621094 L 5.0625 0 Z M 2.5625 0 "/></g></g></g><g fill="#3de086" fill-opacity="1"><g transform="translate(85.423473, 46.861533)"><g><path d="M 9.390625 0.199219 C 7.792969 0.199219 6.558594 -0.265625 5.695312 -1.199219 C 4.828125 -2.132812 4.394531 -3.464844 4.394531 -5.195312 L 4.394531 -15.351562 L 1.097656 -15.351562 L 1.097656 -17.847656 L 1.929688 -17.847656 C 2.6875 -17.847656 3.285156 -18.097656 3.730469 -18.597656 C 4.171875 -19.097656 4.394531 -19.726562 4.394531 -20.480469 L 4.394531 -21.976562 L 6.894531 -21.976562 L 6.894531 -17.847656 L 10.824219 -17.847656 L 10.824219 -15.351562 L 6.894531 -15.351562 L 6.894531 -5.195312 C 6.894531 -4.59375 6.980469 -4.066406 7.160156 -3.613281 C 7.335938 -3.15625 7.640625 -2.796875 8.074219 -2.53125 C 8.507812 -2.265625 9.089844 -2.132812 9.824219 -2.132812 C 10 -2.132812 10.210938 -2.140625 10.457031 -2.164062 C 10.699219 -2.1875 10.910156 -2.207031 11.089844 -2.230469 L 11.089844 0 C 10.824219 0.0664062 10.523438 0.117188 10.191406 0.148438 C 9.855469 0.183594 9.589844 0.199219 9.390625 0.199219 Z M 9.390625 0.199219 "/></g></g></g><g fill="#3de086" fill-opacity="1"><g transform="translate(98.008163, 46.861533)"><g><path d="M 7.726562 0.398438 C 6.59375 0.398438 5.582031 0.183594 4.695312 -0.25 C 3.808594 -0.683594 3.109375 -1.277344 2.597656 -2.03125 C 2.085938 -2.785156 1.832031 -3.652344 1.832031 -4.628906 C 1.832031 -5.5625 2.03125 -6.410156 2.429688 -7.175781 C 2.832031 -7.941406 3.453125 -8.589844 4.296875 -9.125 C 5.140625 -9.65625 6.214844 -10.035156 7.527344 -10.257812 L 14.519531 -11.421875 L 14.519531 -9.15625 L 8.125 -8.09375 C 6.835938 -7.871094 5.910156 -7.460938 5.34375 -6.859375 C 4.777344 -6.261719 4.496094 -5.550781 4.496094 -4.730469 C 4.496094 -3.929688 4.8125 -3.253906 5.445312 -2.699219 C 6.078125 -2.140625 6.894531 -1.863281 7.890625 -1.863281 C 9.113281 -1.863281 10.179688 -2.125 11.089844 -2.648438 C 12 -3.167969 12.710938 -3.875 13.21875 -4.761719 C 13.730469 -5.648438 13.984375 -6.636719 13.984375 -7.726562 L 13.984375 -12.253906 C 13.984375 -13.320312 13.597656 -14.1875 12.820312 -14.851562 C 12.042969 -15.519531 11.035156 -15.851562 9.789062 -15.851562 C 8.703125 -15.851562 7.746094 -15.578125 6.925781 -15.035156 C 6.105469 -14.492188 5.496094 -13.785156 5.09375 -12.921875 L 2.832031 -14.152344 C 3.164062 -14.90625 3.691406 -15.59375 4.414062 -16.21875 C 5.132812 -16.839844 5.960938 -17.332031 6.894531 -17.699219 C 7.824219 -18.066406 8.792969 -18.25 9.789062 -18.25 C 11.101562 -18.25 12.261719 -17.992188 13.269531 -17.484375 C 14.28125 -16.972656 15.066406 -16.265625 15.632812 -15.367188 C 16.199219 -14.46875 16.484375 -13.429688 16.484375 -12.253906 L 16.484375 0 L 13.984375 0 L 13.984375 -3.5625 L 14.351562 -3.195312 C 14.042969 -2.53125 13.558594 -1.925781 12.902344 -1.382812 C 12.25 -0.839844 11.484375 -0.40625 10.605469 -0.0820312 C 9.730469 0.238281 8.769531 0.398438 7.726562 0.398438 Z M 7.726562 0.398438 "/></g></g></g><g fill="#3de086" fill-opacity="1"><g transform="translate(117.05176, 46.861533)"><g><path d="M 2.5625 0 L 2.5625 -17.847656 L 5.0625 -17.847656 L 5.0625 0 Z M 2.5625 -21.144531 L 2.5625 -24.808594 L 5.0625 -24.808594 L 5.0625 -21.144531 Z M 2.5625 -21.144531 "/></g></g></g><g clip-path="url(#c60925dc03)"><path fill="#000000" d="M 75.46875 54.273438 C 77.523438 51.136719 81.097656 49.519531 84.65625 48.941406 C 88.640625 48.296875 92.675781 49 96.5 50.167969 C 101.03125 51.550781 105.335938 53.574219 109.808594 55.121094 C 114.339844 56.6875 119.253906 57.867188 124.054688 57.132812 C 126.171875 56.808594 128.242188 56.113281 129.734375 54.476562 C 131.101562 52.976562 131.890625 51 132.03125 48.964844 C 132.0625 48.46875 132.050781 47.972656 131.996094 47.480469 C 131.945312 47.015625 131.640625 46.617188 131.148438 46.617188 C 130.734375 46.617188 130.242188 47.015625 130.300781 47.480469 C 130.527344 49.347656 130.101562 51.214844 129.035156 52.761719 C 128.546875 53.46875 127.902344 54.078125 127.167969 54.511719 C 126.265625 55.039062 125.203125 55.296875 124.1875 55.492188 C 119.550781 56.386719 114.664062 55.140625 110.277344 53.648438 C 105.839844 52.140625 101.566406 50.167969 97.078125 48.808594 C 93.128906 47.609375 89.050781 46.9375 84.941406 47.558594 C 83.125 47.832031 81.351562 48.367188 79.703125 49.195312 C 78.105469 50 76.660156 51.257812 75.539062 52.664062 C 75.246094 53.035156 74.96875 53.421875 74.714844 53.824219 C 74.40625 54.308594 75.160156 54.75 75.46875 54.273438 " fill-opacity="1" fill-rule="nonzero"/></g><g clip-path="url(#ca935972d5)"><g clip-path="url(#6de41d7abb)"><g transform="matrix(1, 0, 0, 1, 128, 21)"><g clip-path="url(#1b6d01e985)"><g clip-path="url(#16358bae4d)"><g clip-path="url(#509d14653d)"><path fill="#000000" d="M 5.3125 0.640625 L 5.3125 26.675781 L 0.792969 26.675781 L 0.792969 0.640625 Z M 5.3125 0.640625 " fill-opacity="1" fill-rule="nonzero"/></g></g></g></g></g></g></svg>