<svg xmlns="http://www.w3.org/2000/svg" width="1200" height="675" viewBox="0 0 1200 675" fill="none">
  <rect width="1200" height="675" fill="#f8fafc"/>
  <path d="M0 0h1200v675H0z" fill="url(#grid)"/>
  <circle cx="600" cy="330" r="118" fill="#fff7ed" stroke="#fe7d02" stroke-width="4"/>
  <path d="M555 292c0-24 20-44 45-44s45 20 45 44c0 14-7 27-17 35 14 8 24 23 24 40 0 28-23 51-52 51s-52-23-52-51c0-17 9-32 24-40-10-8-17-21-17-35Z" fill="white" stroke="#111827" stroke-width="6"/>
  <path d="M600 248v170M548 367h104M555 292h90" stroke="#fe7d02" stroke-width="5" stroke-linecap="round"/>
  <rect x="160" y="130" width="250" height="92" rx="14" fill="white" stroke="#d1d5db" stroke-width="3"/>
  <rect x="790" y="130" width="250" height="92" rx="14" fill="white" stroke="#d1d5db" stroke-width="3"/>
  <rect x="160" y="452" width="250" height="92" rx="14" fill="white" stroke="#d1d5db" stroke-width="3"/>
  <rect x="790" y="452" width="250" height="92" rx="14" fill="white" stroke="#d1d5db" stroke-width="3"/>
  <path d="M410 176h120M790 176H670M410 498h120M790 498H670" stroke="#fe7d02" stroke-width="6" stroke-linecap="round"/>
  <text x="215" y="185" fill="#111827" font-family="Arial, sans-serif" font-size="28" font-weight="800">Prompt</text>
  <text x="866" y="185" fill="#111827" font-family="Arial, sans-serif" font-size="28" font-weight="800">Data</text>
  <text x="218" y="507" fill="#111827" font-family="Arial, sans-serif" font-size="28" font-weight="800">Action</text>
  <text x="852" y="507" fill="#111827" font-family="Arial, sans-serif" font-size="28" font-weight="800">Review</text>
  <text x="380" y="76" fill="#111827" font-family="Arial, sans-serif" font-size="46" font-weight="900">AI Automation Workflows</text>
  <defs>
    <pattern id="grid" width="48" height="48" patternUnits="userSpaceOnUse">
      <path d="M48 0H0v48" stroke="#111827" stroke-opacity=".05"/>
    </pattern>
  </defs>
</svg>
